<?xml version="1.0" standalone="no"?><!DOCTYPE svg PUBLIC "-//W3C//DTD SVG 1.1//EN" "http://www.w3.org/Graphics/SVG/1.1/DTD/svg11.dtd"><svg t="1591710748329" class="icon" viewBox="0 0 1024 1024" version="1.1" xmlns="http://www.w3.org/2000/svg" p-id="8901" xmlns:xlink="http://www.w3.org/1999/xlink" width="200" height="200"><defs><style type="text/css"></style></defs><path d="M841.6 576c60.8-32 99.2-92.8 99.2-163.2 0-102.4-83.2-185.6-185.6-185.6-102.4 0-185.6 83.2-185.6 185.6 0 70.4 41.6 134.4 99.2 163.2-32 12.8-64 28.8-89.6 51.2-3.2-3.2-6.4-9.6-9.6-12.8-38.4-44.8-89.6-80-147.2-96 70.4-35.2 118.4-108.8 118.4-192a214.4 214.4 0 0 0-428.8 0c0 83.2 48 156.8 118.4 192-131.2 41.6-224 163.2-224 307.2v3.2h38.4v-3.2c0-156.8 128-281.6 281.6-281.6 86.4 0 166.4 38.4 217.6 102.4 9.6 9.6 16 22.4 22.4 35.2 25.6 41.6 41.6 92.8 41.6 147.2v3.2h38.4v-3.2c0-60.8-16-115.2-44.8-163.2 41.6-38.4 92.8-60.8 153.6-60.8 124.8 0 224 99.2 224 224v3.2h38.4v-3.2c0-118.4-73.6-217.6-176-252.8zM150.4 329.6c0-96 80-176 176-176s176 80 176 176-80 176-176 176c-96-3.2-176-80-176-176zM608 412.8c0-80 64-147.2 147.2-147.2 80 0 147.2 64 147.2 147.2 0 80-64 147.2-147.2 147.2-80 0-147.2-67.2-147.2-147.2z" fill="#2aa515" p-id="8902"></path></svg>