<?xml version="1.0" standalone="no"?><!DOCTYPE svg PUBLIC "-//W3C//DTD SVG 1.1//EN" "http://www.w3.org/Graphics/SVG/1.1/DTD/svg11.dtd"><svg t="1591709917745" class="icon" viewBox="0 0 1024 1024" version="1.1" xmlns="http://www.w3.org/2000/svg" p-id="3565" xmlns:xlink="http://www.w3.org/1999/xlink" width="200" height="200"><defs><style type="text/css"></style></defs><path d="M904 143.8c14.8 0 28.9 5.9 39.5 16.5C954.1 171 960 185 960 199.8V665c0 14.8-5.9 28.9-16.5 39.5-10.6 10.6-24.7 16.5-39.5 16.5H577.2c-12 0-23.7 3.2-34.1 9.2l-2.4 1.4-2.3 1.6-164.3 115.2V789c0-37.5-30.5-68-68-68H120c-14.8 0-28.9-5.9-39.5-16.5C69.9 693.8 64 679.8 64 665V199.8c0-14.8 5.9-28.9 16.5-39.5 10.6-10.6 24.7-16.5 39.5-16.5h784m0-64H120c-66 0-120 54-120 120V665c0 66 54 120 120 120h186.1c2.2 0 4 1.8 4 4v125.1c0 17.4 14.3 30 30 30 4.5 0 9.2-1.1 13.7-3.3l221.4-155.3c0.6-0.4 1.3-0.5 2-0.5H904c66 0 120-54 120-120V199.8c0-66-54-120-120-120z" fill="#1296db" p-id="3566"></path><path d="M448 448a64 62.4 0 1 0 128 0 64 62.4 0 1 0-128 0Z" fill="#1296db" p-id="3567"></path><path d="M213.2 448a64 62.4 0 1 0 128 0 64 62.4 0 1 0-128 0Z" fill="#1296db" p-id="3568"></path><path d="M682.5 448a64 62.4 0 1 0 128 0 64 62.4 0 1 0-128 0Z" fill="#1296db" p-id="3569"></path></svg>